<svg viewBox="0 0 160 128" width="160" height="128" xmlns="http://www.w3.org/2000/svg">
<style>text{font-family:"Avenir Next",Avenir,"Helvetica Neue",Helvetica,Arial,sans-serif;}</style>
<rect width="160" height="128" fill="#000"/>
<rect x="2" y="2" width="76" height="12" fill="#6B6B6B"/>
<text x="40" y="11" text-anchor="middle" fill="#0a0a0a" font-weight="700" font-size="8" letter-spacing="1">FREE PLAY</text>
<rect x="82" y="2" width="76" height="12" fill="#B07A2A"/>
<text x="120" y="11" text-anchor="middle" fill="#0a0a0a" font-weight="700" font-size="8" letter-spacing="1">STYLE</text>
<g transform="translate(4,20)">
<rect x="0" y="0" width="22" height="13" fill="none" stroke="#7a7a7a" stroke-width="0.5"/>
<text x="11" y="9.5" text-anchor="middle" fill="#E8DCC4" font-size="7">HAT</text>
<rect x="24" y="0" width="22" height="13" fill="none" stroke="#7a7a7a" stroke-width="0.5"/>
<text x="35" y="9.5" text-anchor="middle" fill="#E8DCC4" font-size="7">KIK</text>
<rect x="0" y="15" width="22" height="13" fill="#B07A2A"/>
<text x="11" y="24.5" text-anchor="middle" fill="#0a0a0a" font-weight="700" font-size="7">SNR</text>
<rect x="24" y="15" width="22" height="13" fill="none" stroke="#7a7a7a" stroke-width="0.5"/>
<text x="35" y="24.5" text-anchor="middle" fill="#E8DCC4" font-size="7">FX</text>
<g transform="translate(1.5,32)" fill="#E8DCC4">
<rect x="0" y="10" width="3" height="6"/>
<rect x="4" y="6" width="3" height="10"/>
<rect x="8" y="2" width="3" height="14"/>
<rect x="12" y="8" width="3" height="8"/>
<rect x="16" y="4" width="3" height="12"/>
<rect x="20" y="9" width="3" height="7"/>
<rect x="24" y="0" width="3" height="16"/>
<rect x="28" y="5" width="3" height="11"/>
<rect x="32" y="11" width="3" height="5"/>
<rect x="36" y="3" width="3" height="13"/>
<rect x="40" y="7" width="3" height="9"/>
</g>
<rect x="0" y="54" width="46" height="11" fill="#E8DCC4"/>
<text x="23" y="62" text-anchor="middle" fill="#0a0a0a" font-weight="700" font-size="7" letter-spacing="0.4">DRUM HELD</text>
<text x="0" y="76" fill="#7a7a7a" font-size="7" letter-spacing="0.4">USER</text>
<text x="46" y="76" text-anchor="end" fill="#E8DCC4" font-weight="700" font-size="8">01</text>
</g>
<line x1="80" y1="18" x2="80" y2="110" stroke="#333" stroke-width="0.5"/>
<g transform="translate(84,20)">
<text x="0" y="10" fill="#E8DCC4" font-weight="700" font-size="13" letter-spacing="0.3">NEON POP</text>
<g font-size="8">
<text x="0" y="24" fill="#7a7a7a">BPM</text>
<text x="74" y="24" text-anchor="end" fill="#E8DCC4" font-weight="700">120</text>
<text x="0" y="36" fill="#7a7a7a">KIT</text>
<text x="74" y="36" text-anchor="end" fill="#E8DCC4" font-weight="700">808</text>
<text x="0" y="48" fill="#7a7a7a">LEAD</text>
<text x="74" y="48" text-anchor="end" fill="#E8DCC4" font-weight="700">SYN1</text>
<text x="0" y="60" fill="#7a7a7a">FX</text>
<text x="74" y="60" text-anchor="end" fill="#E8DCC4" font-weight="700">PHASER</text>
<text x="0" y="74" fill="#7a7a7a">VOL</text>
<rect x="18" y="67" width="38" height="7" fill="none" stroke="#5a5a5a" stroke-width="0.4"/>
<rect x="18" y="67" width="27" height="7" fill="#E8DCC4"/>
<text x="74" y="74" text-anchor="end" fill="#E8DCC4" font-weight="700">70</text>
</g>
</g>
<g transform="translate(0,114)">
<rect x="2" y="0" width="37" height="12" fill="#2C5A9E"/>
<text x="20.5" y="9" text-anchor="middle" fill="#E8DCC4" font-weight="700" font-size="8" letter-spacing="0.8">FX</text>
<rect x="41" y="0" width="37" height="12" fill="#E8DCC4"/>
<text x="59.5" y="9" text-anchor="middle" fill="#0a0a0a" font-weight="700" font-size="8" letter-spacing="0.8">DRUM</text>
<rect x="80" y="0" width="39" height="12" fill="#C73E2E"/>
<text x="99.5" y="9" text-anchor="middle" fill="#E8DCC4" font-weight="700" font-size="8" letter-spacing="0.8">MELODY</text>
<rect x="121" y="0" width="37" height="12" fill="#5C5C5C"/>
<rect x="124" y="3" width="11" height="6" fill="none" stroke="#0a0a0a" stroke-width="0.6"/>
<rect x="135" y="5" width="1" height="2" fill="#0a0a0a"/>
<rect x="125" y="4" width="9" height="4" fill="#0a0a0a"/>
<text x="155" y="9" text-anchor="end" fill="#0a0a0a" font-weight="700" font-size="8">85%</text>
</g>
</svg>
